<svg width="40" height="40" viewBox="0 0 40 40" fill="none" xmlns="http://www.w3.org/2000/svg">
<g clip-path="url(#clip0_7_2)">
<path d="M30.3634 3.20806C36.0226 6.70387 39.7938 12.9634 39.7938 20.1039C39.7938 31.0639 30.9088 39.9488 19.9488 39.9488C17.6285 39.9517 15.3257 39.5463 13.1457 38.7513L12.9194 38.667L13.2884 38.5482L13.7628 38.3929L13.9969 38.3144L14.2288 38.236L14.6865 38.0784L15.1358 37.9197L15.5767 37.76L16.009 37.5994L16.2223 37.5184L16.6422 37.356C17.0856 37.1823 17.515 37.0065 17.9299 36.8288L18.2385 36.6955L18.6167 36.5277C18.7826 36.4527 18.9464 36.3777 19.1076 36.302L19.3476 36.1885L19.7008 36.0171L19.8741 35.9312L20.0453 35.8446L20.3817 35.671C23.2053 34.1901 25.1234 32.5811 26.142 30.8171C28.3002 27.0794 26.4152 23.0853 21.0053 19.0133L20.565 18.6834L20.2974 18.4781L20.0378 18.2747L19.7857 18.0726L19.5417 17.8722L19.4226 17.7727L19.3051 17.6735L19.0763 17.476L18.9098 17.329L18.7476 17.1826L18.538 16.9891L18.3358 16.7969L18.1411 16.6065L18.0468 16.5119L17.9541 16.4174L17.7746 16.2298C15.636 13.9563 15.1585 12.0102 16.1293 10.3284C16.6236 9.47255 17.4803 8.631 18.698 7.81147L18.8459 7.71317L19.0788 7.56341C19.1842 7.49705 19.2918 7.43069 19.4019 7.36434L19.5687 7.26511L19.826 7.1169L20.0912 6.9693L20.2955 6.85891L20.5042 6.74883L20.7898 6.60248C21.0122 6.49035 21.2362 6.3813 21.4617 6.27535L21.6949 6.16682L22.0127 6.02294L22.1746 5.951L22.5045 5.80837L22.6726 5.73705L23.0149 5.59473L23.1885 5.52403L23.5429 5.38294L23.7231 5.31255L24.0896 5.1724L24.4639 5.03286L24.654 4.96372L25.0406 4.82511L25.435 4.68744L25.8378 4.55069L26.0422 4.48248L26.4567 4.34666L26.8797 4.21147L27.3104 4.07721L27.7491 3.94356L28.1963 3.81054L28.7662 3.64589L29.3488 3.48217L30.0645 3.28744L30.3634 3.20806ZM19.9488 0.258911C22.3622 0.258911 24.675 0.689919 26.8143 1.47845L27.0428 1.56434L26.898 1.60837L26.191 1.82635L25.9597 1.89953L25.5029 2.04651L25.0546 2.19504L24.6146 2.34449L24.1829 2.49519L23.7597 2.64713L23.551 2.72341L23.0388 2.91566L22.5395 3.11007L22.1491 3.26666L21.9572 3.34542L21.5795 3.50418C17.72 5.14883 15.1907 6.99317 13.9814 9.08806C11.8701 12.7448 13.7851 16.6868 19.1957 20.7575L19.636 21.0877L19.9033 21.293L20.1628 21.4967L20.2899 21.5981L20.5377 21.7997L20.7181 21.9498L20.8949 22.0992L21.1231 22.297L21.2347 22.3957L21.4515 22.5913C21.5696 22.6998 21.6847 22.8077 21.7957 22.9147L21.96 23.0747L22.1966 23.3135L22.4214 23.5495C24.5507 25.8388 25.0059 27.8239 23.9941 29.5767C23.3392 30.7107 22.089 31.8273 20.2465 32.911L20.0772 33.0096L19.8031 33.1646L19.5209 33.3197C19.359 33.4071 19.1961 33.4928 19.0322 33.5767L18.7795 33.7045L18.4685 33.8577L18.1495 34.0102L17.8223 34.1622L17.6558 34.2384L17.3166 34.3895L16.969 34.5405L16.6133 34.6905L16.4322 34.7653L16.0645 34.9147L15.8775 34.9891L15.6884 35.0636L15.3045 35.2118L14.9119 35.3594L14.5119 35.5064L14.1033 35.6527L13.6865 35.7984L13.475 35.871L13.0462 36.0158L12.8288 36.0877L12.3876 36.2316L11.9386 36.3746L11.3656 36.5526L10.7798 36.7293L10.3023 36.8701L9.63566 37.0617C3.92031 33.5783 0.104187 27.2868 0.104187 20.1039C0.104187 9.14387 8.98884 0.258911 19.9488 0.258911Z" fill="#0080FF"/>
</g>
<defs>
<clipPath id="clip0_7_2">
<rect width="40" height="40" fill="white"/>
</clipPath>
</defs>
</svg>
